<?xml version="1.0" encoding="utf-8"?><svg viewBox="0 0 576 512" xmlns="http://www.w3.org/2000/svg" xmlns:xlink="http://www.w3.org/1999/xlink"><style>:root>svg{display:none}:root>svg:target{display:block}</style><svg viewBox="0 0 576 512" id="house-solid" xmlns="http://www.w3.org/2000/svg"><!--! Font Awesome Pro 6.2.0 by @fontawesome - https://fontawesome.com License - https://fontawesome.com/license (Commercial License) Copyright 2022 Fonticons, Inc.--><path d="M575.8 255.5c0 18-15 32.1-32 32.1h-32l.7 160.2c0 2.7-.2 5.4-.5 8.1V472c0 22.1-17.9 40-40 40h-16c-1.1 0-2.2 0-3.3-.1-1.4.1-2.8.1-4.2.1H392c-22.1 0-40-17.9-40-40v-88c0-17.7-14.3-32-32-32h-64c-17.7 0-32 14.3-32 32v88c0 22.1-17.9 40-40 40h-55.9c-1.5 0-3-.1-4.5-.2-1.2.1-2.4.2-3.6.2h-16c-22.1 0-40-17.9-40-40V360c0-.9 0-1.9.1-2.8v-69.6H32c-18 0-32-14-32-32.1 0-9 3-17 10-24L266.4 8c7-7 15-8 22-8s15 2 21 7l255.4 224.5c8 7 12 15 11 24z"/></svg><svg viewBox="0 0 576 512" id="star-solid" xmlns="http://www.w3.org/2000/svg"><!--! Font Awesome Pro 6.2.0 by @fontawesome - https://fontawesome.com License - https://fontawesome.com/license (Commercial License) Copyright 2022 Fonticons, Inc.--><path d="M316.9 18c-5.3-11-16.5-18-28.8-18s-23.4 7-28.8 18L195 150.3 51.4 171.5c-12 1.8-22 10.2-25.7 21.7s-.7 24.2 7.9 32.7L137.8 329l-24.6 145.7c-2 12 3 24.2 12.9 31.3s23 8 33.8 2.3l128.3-68.5 128.3 68.5c10.8 5.7 23.9 4.9 33.8-2.3s14.9-19.3 12.9-31.3L438.5 329l104.2-103.1c8.6-8.5 11.7-21.2 7.9-32.7s-13.7-19.9-25.7-21.7l-143.7-21.2L316.9 18z"/></svg></svg>